<svg xmlns="http://www.w3.org/2000/svg" xmlns:xlink="http://www.w3.org/1999/xlink" width="100" zoomAndPan="magnify" viewBox="0 0 75 74.999997" height="100" preserveAspectRatio="xMidYMid meet" version="1.0"><defs><g/><clipPath id="cab31c3cfe"><path d="M 4.679688 4 L 70.335938 4 L 70.335938 37.410156 L 4.679688 37.410156 Z M 4.679688 4 " clip-rule="nonzero"/></clipPath><clipPath id="89d5b16b2f"><path d="M 4.679688 37.007812 L 38.144531 37.007812 L 38.144531 70.472656 L 4.679688 70.472656 Z M 4.679688 37.007812 " clip-rule="nonzero"/></clipPath></defs><rect x="-7.5" width="90" fill="#ffffff" y="-7.5" height="89.999996" fill-opacity="1"/><rect x="-7.5" width="90" fill="#ffffff" y="-7.5" height="89.999996" fill-opacity="1"/><g clip-path="url(#cab31c3cfe)"><path fill="#17191b" d="M 70.257812 37.472656 L 69.652344 37.472656 C 69.652344 19.726562 55.214844 5.285156 37.46875 5.285156 C 19.71875 5.285156 5.28125 19.726562 5.28125 37.472656 L 4.679688 37.472656 C 4.679688 36.535156 4.71875 35.601562 4.800781 34.667969 C 4.882812 33.734375 5 32.804688 5.160156 31.882812 C 5.324219 30.960938 5.523438 30.042969 5.761719 29.140625 C 6 28.234375 6.277344 27.339844 6.589844 26.457031 C 6.90625 25.574219 7.257812 24.707031 7.648438 23.855469 C 8.039062 23.003906 8.464844 22.167969 8.925781 21.355469 C 9.386719 20.539062 9.878906 19.742188 10.410156 18.972656 C 10.9375 18.199219 11.5 17.449219 12.09375 16.722656 C 12.6875 16 13.308594 15.300781 13.964844 14.628906 C 14.617188 13.957031 15.296875 13.3125 16.003906 12.699219 C 16.714844 12.085938 17.445312 11.503906 18.203125 10.957031 C 18.960938 10.40625 19.742188 9.886719 20.546875 9.402344 C 21.347656 8.921875 22.167969 8.472656 23.007812 8.058594 C 23.851562 7.644531 24.707031 7.269531 25.582031 6.929688 C 26.453125 6.589844 27.339844 6.289062 28.238281 6.023438 C 29.136719 5.761719 30.046875 5.535156 30.964844 5.347656 C 31.882812 5.164062 32.808594 5.015625 33.738281 4.910156 C 34.667969 4.804688 35.601562 4.734375 36.539062 4.710938 C 37.476562 4.683594 38.410156 4.695312 39.347656 4.75 C 40.28125 4.804688 41.210938 4.894531 42.140625 5.03125 C 43.066406 5.164062 43.988281 5.335938 44.898438 5.546875 C 45.8125 5.757812 46.714844 6.011719 47.605469 6.300781 C 48.496094 6.589844 49.375 6.914062 50.238281 7.28125 C 51.097656 7.644531 51.945312 8.046875 52.773438 8.480469 C 53.601562 8.917969 54.410156 9.390625 55.199219 9.898438 C 55.988281 10.402344 56.753906 10.941406 57.496094 11.515625 C 58.238281 12.085938 58.953125 12.6875 59.644531 13.320312 C 60.335938 13.953125 60.996094 14.617188 61.628906 15.304688 C 62.265625 15.996094 62.867188 16.710938 63.441406 17.453125 C 64.011719 18.195312 64.550781 18.960938 65.058594 19.75 C 65.566406 20.535156 66.039062 21.34375 66.476562 22.171875 C 66.914062 23 67.3125 23.847656 67.679688 24.710938 C 69.40625 28.789062 70.265625 33.042969 70.257812 37.472656 Z M 70.257812 37.472656 " fill-opacity="1" fill-rule="nonzero"/></g><g clip-path="url(#89d5b16b2f)"><path fill="#17191b" d="M 5.296875 37.097656 C 5.296875 55.15625 19.992188 69.851562 38.050781 69.851562 L 38.050781 70.464844 C 36.960938 70.464844 35.867188 70.414062 34.78125 70.304688 C 33.691406 70.199219 32.613281 70.039062 31.539062 69.828125 C 30.46875 69.617188 29.410156 69.351562 28.363281 69.035156 C 27.316406 68.71875 26.289062 68.351562 25.277344 67.933594 C 24.269531 67.515625 23.28125 67.046875 22.316406 66.53125 C 21.351562 66.019531 20.417969 65.457031 19.507812 64.851562 C 18.597656 64.242188 17.722656 63.59375 16.875 62.898438 C 16.03125 62.207031 15.222656 61.472656 14.449219 60.699219 C 13.675781 59.925781 12.945312 59.117188 12.25 58.273438 C 11.558594 57.425781 10.90625 56.550781 10.300781 55.640625 C 9.691406 54.734375 9.132812 53.796875 8.617188 52.832031 C 8.101562 51.867188 7.636719 50.878906 7.21875 49.871094 C 6.800781 48.859375 6.433594 47.832031 6.113281 46.785156 C 5.796875 45.738281 5.535156 44.679688 5.320312 43.609375 C 5.109375 42.535156 4.949219 41.457031 4.84375 40.367188 C 4.738281 39.28125 4.683594 38.191406 4.683594 37.097656 " fill-opacity="1" fill-rule="nonzero"/></g><g fill="#17191b" fill-opacity="1"><g transform="translate(43.635379, 70.651918)"><g><path d="M 3.6875 -1.1875 L 2.390625 -5.1875 L 1.859375 -5.015625 L 2.40625 -3.3125 L 0.234375 -2.609375 L -0.3125 -4.3125 L -0.84375 -4.140625 L 0.453125 -0.140625 L 0.984375 -0.3125 L 0.390625 -2.140625 L 2.5625 -2.84375 L 3.15625 -1.015625 Z M 3.6875 -1.1875 "/></g></g></g><g fill="#17191b" fill-opacity="1"><g transform="translate(48.198909, 69.1083)"><g><path d="M 1.1875 -2.375 L 0.796875 -2.1875 C 0.5 -2.015625 0.078125 -1.734375 -0.09375 -1.40625 C -0.265625 -1.125 -0.1875 -0.859375 -0.125 -0.734375 C 0.0625 -0.3125 0.5625 -0.15625 1.0625 -0.390625 C 1.5625 -0.625 1.703125 -1.03125 1.75 -1.203125 C 1.796875 -1.140625 1.9375 -1 2.078125 -0.984375 C 2.1875 -0.953125 2.34375 -1.03125 2.375 -1.046875 C 2.453125 -1.078125 2.515625 -1.109375 2.625 -1.203125 L 2.453125 -1.578125 C 2.421875 -1.546875 2.40625 -1.515625 2.34375 -1.5 C 2.15625 -1.40625 2.09375 -1.546875 2.015625 -1.703125 L 1.609375 -2.59375 C 1.40625 -3.046875 1.265625 -3.328125 0.796875 -3.34375 C 0.515625 -3.390625 0.25 -3.28125 0.09375 -3.203125 C -0.796875 -2.796875 -0.578125 -2.0625 -0.515625 -1.9375 L -0.046875 -2.109375 L -0.078125 -2.15625 C -0.21875 -2.46875 -0.09375 -2.75 0.265625 -2.90625 C 0.8125 -3.15625 1.03125 -2.703125 1.140625 -2.484375 Z M 1.3125 -2.109375 L 1.390625 -1.90625 C 1.703125 -1.25 1.21875 -0.921875 1 -0.8125 C 0.65625 -0.65625 0.4375 -0.78125 0.359375 -0.96875 C 0.234375 -1.21875 0.40625 -1.4375 0.484375 -1.5 C 0.65625 -1.6875 1.125 -1.96875 1.3125 -2.109375 Z M 1.3125 -2.109375 "/></g></g></g><g fill="#17191b" fill-opacity="1"><g transform="translate(51.293043, 67.659872)"><g><path d="M -1.015625 -2.640625 L 0.34375 -0.1875 L 0.75 -0.421875 L 0.125 -1.5625 C -0.015625 -1.796875 -0.046875 -1.890625 -0.078125 -2.03125 C -0.171875 -2.375 0 -2.671875 0.296875 -2.84375 C 0.34375 -2.875 0.40625 -2.90625 0.46875 -2.921875 L 0.21875 -3.375 C -0.109375 -3.1875 -0.234375 -2.953125 -0.28125 -2.828125 C -0.328125 -2.703125 -0.359375 -2.578125 -0.359375 -2.4375 L -0.609375 -2.875 Z M -1.015625 -2.640625 "/></g></g></g><g fill="#17191b" fill-opacity="1"><g transform="translate(53.322782, 66.55212)"><g><path d="M -1.21875 -2.546875 L 1.0625 0.890625 L 1.4375 0.640625 L 0.515625 -0.734375 C 0.859375 -0.625 1.234375 -0.71875 1.546875 -0.921875 C 2.375 -1.46875 2.15625 -2.359375 1.8125 -2.890625 C 1.21875 -3.765625 0.40625 -3.75 -0.078125 -3.4375 C -0.484375 -3.15625 -0.609375 -2.71875 -0.640625 -2.46875 L -0.84375 -2.796875 Z M -0.046875 -1.59375 C -0.4375 -2.171875 -0.34375 -2.71875 0.109375 -3.03125 C 0.4375 -3.25 0.984375 -3.265625 1.40625 -2.625 C 1.765625 -2.078125 1.75 -1.5625 1.25 -1.234375 C 0.796875 -0.921875 0.296875 -1.0625 -0.046875 -1.59375 Z M -0.046875 -1.59375 "/></g></g></g><g fill="#17191b" fill-opacity="1"><g transform="translate(56.47546, 64.409954)"><g><path d="M -0.25 -1.5 L 1.390625 -2.84375 L 1.328125 -2.90625 C 0.640625 -3.75 -0.140625 -3.640625 -0.609375 -3.25 C -1.078125 -2.875 -1.40625 -2.078125 -0.71875 -1.25 C -0.015625 -0.40625 0.765625 -0.515625 1.296875 -0.953125 C 2.03125 -1.546875 1.75 -2.296875 1.671875 -2.484375 L 1.25 -2.21875 C 1.375 -2 1.484375 -1.578125 1.109375 -1.265625 C 0.59375 -0.828125 0.046875 -1.140625 -0.234375 -1.46875 Z M -0.484375 -1.765625 C -0.734375 -2.125 -0.796875 -2.625 -0.421875 -2.9375 C -0.046875 -3.25 0.453125 -3.140625 0.75 -2.78125 Z M -0.484375 -1.765625 "/></g></g></g><g fill="#17191b" fill-opacity="1"><g transform="translate(59.179618, 62.120493)"><g><path d="M -1.671875 -2.265625 L 0.28125 -0.265625 L 0.609375 -0.59375 L -0.296875 -1.53125 C -0.484375 -1.71875 -0.546875 -1.8125 -0.609375 -1.921875 C -0.78125 -2.25 -0.703125 -2.59375 -0.46875 -2.828125 C -0.421875 -2.875 -0.375 -2.921875 -0.3125 -2.953125 L -0.671875 -3.328125 C -0.9375 -3.0625 -1 -2.796875 -1 -2.65625 C -1.03125 -2.515625 -1.03125 -2.375 -0.984375 -2.234375 L -1.34375 -2.59375 Z M -1.671875 -2.265625 "/></g></g></g><g fill="#17191b" fill-opacity="1"><g transform="translate(60.806034, 60.517845)"><g/></g></g><g fill="#17191b" fill-opacity="1"><g transform="translate(62.226034, 59.011889)"><g><path d="M 2.375 -3.109375 L 0.203125 -3.28125 C 0.578125 -3.96875 0.28125 -4.453125 -0.109375 -4.75 C -0.796875 -5.265625 -1.4375 -5.0625 -1.90625 -4.421875 L -3.0625 -2.921875 L 0.28125 -0.375 L 0.609375 -0.8125 L -0.8125 -1.890625 L -0.15625 -2.75 L 1.96875 -2.578125 Z M -1.1875 -2.171875 L -2.359375 -3.078125 L -1.5625 -4.125 C -1.234375 -4.546875 -0.828125 -4.609375 -0.4375 -4.3125 C 0.015625 -3.96875 -0.140625 -3.53125 -0.4375 -3.15625 Z M -1.1875 -2.171875 "/></g></g></g><g fill="#17191b" fill-opacity="1"><g transform="translate(64.880157, 55.445665)"><g><path d="M 1.390625 -2.3125 L -1 -3.75 L -1.234375 -3.359375 L -0.015625 -2.625 C 0.171875 -2.515625 0.375 -2.390625 0.46875 -2.15625 C 0.640625 -1.84375 0.46875 -1.515625 0.40625 -1.421875 C 0.25 -1.15625 0.046875 -1.125 -0.078125 -1.125 C -0.234375 -1.140625 -0.34375 -1.203125 -0.59375 -1.359375 L -1.953125 -2.171875 L -2.1875 -1.765625 L -0.65625 -0.84375 C -0.453125 -0.71875 -0.234375 -0.609375 0.03125 -0.609375 C 0.4375 -0.609375 0.671875 -0.953125 0.71875 -1.046875 C 0.921875 -1.375 0.9375 -1.796875 0.796875 -2.140625 L 1.15625 -1.921875 Z M 1.390625 -2.3125 "/></g></g></g><g fill="#17191b" fill-opacity="1"><g transform="translate(66.689276, 52.379956)"><g><path d="M -0.734375 -0.5625 C -0.21875 -0.390625 0.328125 -0.46875 0.71875 -1.296875 C 1.015625 -1.890625 0.90625 -2.5 0.421875 -2.734375 C -0.046875 -2.953125 -0.375 -2.671875 -0.71875 -2.234375 L -0.890625 -2.03125 C -1.171875 -1.703125 -1.34375 -1.515625 -1.578125 -1.625 C -1.734375 -1.6875 -1.875 -1.9375 -1.703125 -2.296875 C -1.53125 -2.65625 -1.25 -2.78125 -1.078125 -2.765625 C -1.015625 -2.765625 -0.953125 -2.765625 -0.828125 -2.703125 L -0.65625 -3.1875 C -0.734375 -3.21875 -0.90625 -3.25 -1.125 -3.234375 C -1.359375 -3.203125 -1.75 -3.046875 -2.015625 -2.5 C -2.21875 -2.046875 -2.28125 -1.421875 -1.734375 -1.15625 C -1.390625 -0.984375 -1.015625 -1.078125 -0.5625 -1.71875 L -0.390625 -1.9375 C -0.234375 -2.15625 -0.03125 -2.40625 0.265625 -2.265625 C 0.625 -2.078125 0.5 -1.703125 0.40625 -1.484375 C 0.296875 -1.28125 0.1875 -1.0625 -0.0625 -1 C -0.25 -0.953125 -0.40625 -0.984375 -0.578125 -1.0625 Z M -0.734375 -0.5625 "/></g></g></g><g fill="#17191b" fill-opacity="1"><g transform="translate(68.097604, 49.388766)"><g><path d="M -0.78125 -0.484375 C -0.25 -0.375 0.296875 -0.515625 0.609375 -1.359375 C 0.84375 -1.984375 0.671875 -2.578125 0.171875 -2.765625 C -0.3125 -2.9375 -0.609375 -2.625 -0.921875 -2.171875 L -1.0625 -1.9375 C -1.3125 -1.59375 -1.5 -1.390625 -1.734375 -1.46875 C -1.890625 -1.53125 -2.046875 -1.75 -1.90625 -2.125 C -1.765625 -2.5 -1.5 -2.65625 -1.328125 -2.65625 C -1.265625 -2.671875 -1.203125 -2.671875 -1.0625 -2.609375 L -0.9375 -3.125 C -1.03125 -3.140625 -1.1875 -3.15625 -1.40625 -3.125 C -1.640625 -3.0625 -2.015625 -2.859375 -2.21875 -2.296875 C -2.390625 -1.828125 -2.390625 -1.203125 -1.828125 -1 C -1.453125 -0.859375 -1.109375 -0.984375 -0.71875 -1.65625 L -0.5625 -1.890625 C -0.421875 -2.109375 -0.265625 -2.390625 0.046875 -2.28125 C 0.421875 -2.140625 0.34375 -1.734375 0.265625 -1.515625 C 0.1875 -1.296875 0.078125 -1.09375 -0.15625 -1 C -0.328125 -0.921875 -0.5 -0.953125 -0.671875 -1.015625 Z M -0.78125 -0.484375 "/></g></g></g><g fill="#17191b" fill-opacity="1"><g transform="translate(69.23781, 46.278557)"><g><path d="M -1.296875 -0.578125 C -0.359375 -0.328125 0.3125 -0.765625 0.5 -1.53125 C 0.703125 -2.25 0.359375 -3 -0.609375 -3.25 C -1.59375 -3.515625 -2.203125 -2.96875 -2.375 -2.328125 C -2.6875 -1.15625 -1.71875 -0.6875 -1.296875 -0.578125 Z M -1.140625 -1.078125 C -1.3125 -1.109375 -2.234375 -1.375 -2.015625 -2.234375 C -1.859375 -2.84375 -1.265625 -2.890625 -0.796875 -2.765625 C -0.078125 -2.578125 0.28125 -2.171875 0.125 -1.640625 C -0.0625 -0.90625 -0.828125 -0.984375 -1.140625 -1.078125 Z M -1.140625 -1.078125 "/></g></g></g><g fill="#17191b" fill-opacity="1"><g transform="translate(15.578301, 46.061033)"><g><path d="M 22.640625 -24.890625 C 22.09375 -25.15625 21.5625 -25.0625 21.15625 -24.65625 C 21.03125 -24.53125 20.921875 -24.484375 20.859375 -24.53125 C 20.796875 -24.5625 20.765625 -24.5625 20.8125 -24.515625 C 20.890625 -24.4375 20.484375 -24.078125 19.890625 -23.671875 C 19.625 -23.484375 19.375 -23.3125 19.359375 -23.265625 C 19.265625 -23.09375 19.40625 -23.046875 19.578125 -23.171875 C 19.734375 -23.265625 19.734375 -23.265625 19.671875 -23.09375 C 19.515625 -22.828125 19.546875 -22.828125 20.046875 -23.125 C 20.484375 -23.34375 20.84375 -23.484375 20.609375 -23.3125 C 20.546875 -23.265625 20.5 -23.1875 20.53125 -23.125 C 20.53125 -23.046875 20.359375 -22.625 20.140625 -22.15625 C 19.953125 -21.703125 19.78125 -21.296875 19.78125 -21.28125 C 19.78125 -21.25 19.71875 -21.078125 19.640625 -20.890625 C 19.1875 -19.828125 19.0625 -19.515625 19.0625 -19.421875 C 19.0625 -19.375 19.015625 -19.28125 18.96875 -19.21875 C 18.734375 -18.921875 16.90625 -13.765625 15.875 -10.359375 L 15.65625 -9.71875 L 14.984375 -9.6875 C 14.109375 -9.671875 12.46875 -9.375 10.078125 -8.828125 C 9.015625 -8.59375 8.125 -8.421875 8.109375 -8.4375 C 8.078125 -8.46875 8.46875 -9.859375 8.53125 -9.984375 C 8.59375 -10.03125 8.75 -10.5 8.953125 -11.03125 C 9.109375 -11.578125 9.328125 -12.1875 9.421875 -12.375 C 9.5 -12.59375 9.5625 -12.8125 9.5625 -12.90625 C 9.5625 -13 9.59375 -13.09375 9.640625 -13.125 C 9.6875 -13.140625 9.765625 -13.28125 9.78125 -13.453125 C 9.921875 -13.90625 10.578125 -15.734375 10.75 -16.046875 C 10.84375 -16.21875 10.984375 -16.578125 11.078125 -16.8125 C 11.171875 -17.078125 11.34375 -17.4375 11.4375 -17.609375 C 11.53125 -17.765625 11.609375 -17.921875 11.578125 -17.921875 C 11.515625 -17.921875 12.28125 -19.515625 12.8125 -20.484375 C 13.265625 -21.296875 13.984375 -22.328125 14.125 -22.375 C 14.171875 -22.40625 14.21875 -22.546875 14.25 -22.71875 C 14.25 -22.875 14.296875 -23.09375 14.34375 -23.1875 C 14.4375 -23.40625 14.21875 -23.859375 13.9375 -24.015625 C 13.84375 -24.0625 13.6875 -24.125 13.640625 -24.171875 C 13.578125 -24.21875 13.328125 -24.25 13.078125 -24.21875 C 12.65625 -24.21875 12.609375 -24.171875 12.296875 -23.84375 C 11.9375 -23.40625 11.328125 -22.421875 11.21875 -22.140625 C 11.203125 -22.046875 11.15625 -21.953125 11.078125 -21.953125 C 11.0625 -21.953125 11.03125 -21.921875 11.03125 -21.890625 C 11.0625 -21.84375 10.953125 -21.6875 10.84375 -21.515625 C 10.71875 -21.34375 10.625 -21.171875 10.625 -21.125 C 10.625 -21.0625 10.53125 -20.859375 9.859375 -19.359375 C 9.625 -18.78125 9.28125 -18.03125 9.140625 -17.65625 C 8.96875 -17.265625 8.734375 -16.6875 8.59375 -16.359375 C 8.4375 -16 8.328125 -15.6875 8.328125 -15.640625 C 8.328125 -15.59375 8.28125 -15.5 8.234375 -15.421875 C 8.203125 -15.328125 7.9375 -14.65625 7.703125 -13.90625 C 7.4375 -13.171875 7.203125 -12.46875 7.140625 -12.375 C 6.953125 -11.890625 6.71875 -11.265625 6.671875 -11.109375 C 6.5 -10.671875 6.109375 -9.421875 5.921875 -8.78125 C 5.609375 -7.625 5.5625 -7.609375 4.46875 -7.21875 C 4.3125 -7.171875 4.09375 -7.078125 3.953125 -7 C 3.8125 -6.953125 3.40625 -6.765625 3.046875 -6.625 C 2.453125 -6.359375 2.0625 -6.15625 0.1875 -5.15625 C -0.453125 -4.796875 -0.53125 -4.625 -0.265625 -4.171875 C -0.140625 -3.984375 0.03125 -3.8125 0.125 -3.796875 C 0.390625 -3.71875 0.9375 -3.90625 1.46875 -4.265625 C 2.109375 -4.71875 2.203125 -4.796875 2.453125 -4.890625 C 2.546875 -4.9375 2.765625 -5.078125 2.90625 -5.1875 C 3.015625 -5.296875 3.359375 -5.5 3.625 -5.59375 C 3.859375 -5.703125 4.21875 -5.875 4.390625 -5.953125 C 4.578125 -6.046875 4.828125 -6.140625 4.96875 -6.15625 C 5.1875 -6.234375 5.1875 -6.234375 5.078125 -6 C 4.96875 -5.75 4.71875 -4.9375 4.671875 -4.703125 C 4.671875 -4.625 4.65625 -4.515625 4.625 -4.46875 C 4.53125 -4.203125 4.203125 -2.953125 4 -2.09375 C 3.484375 0.265625 3.4375 1.921875 3.84375 2.828125 C 4.078125 3.328125 4.984375 4.390625 5.15625 4.3125 C 5.203125 4.296875 5.375 4.359375 5.515625 4.4375 C 5.875 4.671875 6.3125 4.53125 6.3125 4.203125 C 6.3125 4.15625 6.1875 4.03125 6.046875 3.953125 C 5.390625 3.640625 5.25 2.515625 5.609375 0.453125 C 5.75 -0.234375 5.828125 -0.84375 5.796875 -0.90625 C 5.78125 -0.953125 5.796875 -1.03125 5.875 -1.0625 C 5.96875 -1.109375 6.0625 -1.484375 6.109375 -1.984375 C 6.109375 -2.0625 6.1875 -2.328125 6.28125 -2.5625 C 6.546875 -3.3125 6.9375 -4.765625 6.890625 -4.828125 C 6.859375 -4.84375 6.890625 -4.921875 6.9375 -4.96875 C 6.984375 -5.015625 7.140625 -5.46875 7.296875 -5.953125 C 7.625 -7.09375 7.625 -7.078125 7.96875 -7.171875 C 10.390625 -7.75 12.1875 -8.15625 14.46875 -8.609375 C 15.453125 -8.828125 15.421875 -8.84375 15.1875 -8.234375 C 14.9375 -7.578125 14.34375 -5.59375 14.171875 -4.890625 C 14.125 -4.625 13.984375 -4.125 13.90625 -3.8125 C 13.8125 -3.5 13.765625 -3.21875 13.796875 -3.1875 C 13.8125 -3.171875 13.8125 -3.09375 13.765625 -3 C 13.671875 -2.8125 13.625 -2.421875 13.546875 -1.53125 C 13.53125 -0.8125 13.53125 -0.75 13.6875 -0.578125 C 13.8125 -0.484375 13.984375 -0.3125 14.078125 -0.171875 C 14.703125 0.578125 14.828125 0.671875 15.203125 0.703125 C 15.421875 0.71875 15.640625 0.71875 15.6875 0.671875 C 15.734375 0.625 15.8125 0.3125 15.859375 -0.03125 C 15.921875 -0.671875 15.78125 -1.4375 15.59375 -1.625 C 15.546875 -1.703125 15.5625 -1.828125 15.65625 -1.984375 C 15.78125 -2.25 15.921875 -2.96875 15.875 -3.21875 C 15.875 -3.265625 15.90625 -3.3125 15.953125 -3.3125 C 15.96875 -3.3125 16.046875 -3.453125 16.0625 -3.59375 C 16.140625 -4.09375 16.9375 -6.671875 17.09375 -6.9375 C 17.171875 -7.078125 17.296875 -7.21875 17.359375 -7.265625 C 17.609375 -7.453125 17.71875 -7.859375 17.65625 -8.375 C 17.625 -8.609375 17.625 -8.828125 17.671875 -8.828125 C 17.71875 -8.828125 17.71875 -8.84375 17.703125 -8.890625 C 17.65625 -9 17.75 -9.453125 17.890625 -9.8125 C 17.9375 -9.875 18.03125 -10.21875 18.125 -10.53125 C 18.234375 -10.8125 18.328125 -11.109375 18.375 -11.15625 C 18.421875 -11.203125 18.4375 -11.328125 18.4375 -11.421875 C 18.4375 -11.625 18.59375 -12.09375 18.859375 -12.6875 C 18.921875 -12.875 19 -13.046875 19 -13.078125 C 19 -13.125 19.046875 -13.265625 19.109375 -13.453125 C 19.1875 -13.625 19.265625 -13.84375 19.265625 -13.90625 C 19.265625 -13.984375 19.3125 -14.125 19.375 -14.25 C 19.453125 -14.359375 19.578125 -14.625 19.625 -14.796875 C 19.671875 -14.984375 19.734375 -15.1875 19.78125 -15.234375 C 19.8125 -15.28125 19.859375 -15.46875 19.890625 -15.640625 C 19.890625 -15.828125 19.9375 -16 19.984375 -16.015625 C 20.03125 -16.0625 20.125 -16.28125 20.171875 -16.5 C 20.21875 -16.734375 20.296875 -16.9375 20.3125 -16.953125 C 20.34375 -17 20.40625 -17.171875 20.453125 -17.34375 C 20.53125 -17.53125 20.625 -17.75 20.703125 -17.84375 C 20.765625 -17.921875 20.796875 -18.015625 20.765625 -18.03125 C 20.75 -18.078125 20.796875 -18.28125 20.859375 -18.4375 C 20.96875 -18.640625 21.015625 -18.859375 21.03125 -18.921875 C 21.015625 -19 21.078125 -19.109375 21.125 -19.15625 C 21.203125 -19.234375 21.28125 -19.328125 21.25 -19.375 C 21.25 -19.421875 21.375 -19.6875 21.484375 -19.984375 C 21.609375 -20.265625 21.875 -20.890625 22.09375 -21.34375 C 22.5 -22.28125 22.78125 -22.78125 23.09375 -23.046875 C 23.265625 -23.234375 23.5 -23.765625 23.5 -24.03125 C 23.5 -24.25 23.046875 -24.703125 22.640625 -24.890625 Z M 9.046875 -12.46875 C 9.15625 -12.59375 9.15625 -12.59375 9.09375 -12.421875 C 8.96875 -12.203125 8.890625 -12.15625 8.890625 -12.296875 C 8.890625 -12.328125 8.96875 -12.421875 9.046875 -12.46875 Z M 15.6875 -4.15625 C 15.6875 -4.09375 15.640625 -4.046875 15.59375 -4.03125 C 15.546875 -3.984375 15.515625 -4.03125 15.515625 -4.09375 C 15.515625 -4.171875 15.546875 -4.21875 15.59375 -4.21875 C 15.640625 -4.21875 15.6875 -4.203125 15.6875 -4.15625 Z M 15.0625 -9.5 C 15.375 -9.515625 15.640625 -9.515625 15.640625 -9.5 C 15.640625 -9.40625 15.46875 -9.40625 14.984375 -9.421875 L 14.484375 -9.46875 Z M 11.53125 -8.96875 C 11.5625 -9 11.625 -9 11.703125 -8.96875 C 11.78125 -8.953125 11.75 -8.953125 11.65625 -8.921875 C 11.5625 -8.921875 11.515625 -8.953125 11.53125 -8.96875 Z M 8.03125 -10.171875 C 8.078125 -10.265625 8.125 -10.34375 8.15625 -10.34375 C 8.171875 -10.34375 8.171875 -10.265625 8.15625 -10.171875 C 8.125 -10.09375 8.0625 -10 8.03125 -10 C 7.984375 -10 7.984375 -10.078125 8.03125 -10.171875 Z M 8.0625 -9.640625 C 8.109375 -9.734375 8.234375 -10.078125 8.328125 -10.390625 C 8.421875 -10.71875 8.515625 -10.9375 8.515625 -10.890625 C 8.515625 -10.8125 8.4375 -10.546875 8.375 -10.265625 C 8.28125 -10 8.234375 -9.71875 8.28125 -9.640625 C 8.296875 -9.59375 8.296875 -9.5625 8.25 -9.625 C 8.234375 -9.640625 8.15625 -9.625 8.078125 -9.515625 C 7.96875 -9.359375 7.9375 -9.421875 8.0625 -9.640625 Z M 7.53125 -11.875 C 7.578125 -12.109375 7.890625 -12.78125 7.890625 -12.640625 C 7.890625 -12.609375 7.84375 -12.421875 7.796875 -12.28125 C 7.71875 -12.109375 7.65625 -11.890625 7.609375 -11.796875 C 7.5 -11.65625 7.5 -11.65625 7.53125 -11.875 Z M 7.125 -10.65625 C 7.25 -11.03125 7.359375 -11.328125 7.390625 -11.296875 C 7.4375 -11.265625 7.3125 -10.765625 7.203125 -10.4375 C 7.078125 -10.140625 6.859375 -9.515625 6.71875 -9.046875 C 6.640625 -8.796875 6.53125 -8.4375 6.46875 -8.28125 C 6.359375 -7.9375 6.234375 -7.765625 6.234375 -7.921875 C 6.234375 -7.984375 6.421875 -8.5625 7.125 -10.65625 Z M 6.09375 -7.390625 C 6.140625 -7.40625 6.15625 -7.40625 6.15625 -7.359375 C 6.1875 -7.3125 6.140625 -7.25 6.09375 -7.21875 C 6.046875 -7.203125 6.015625 -7.21875 6.015625 -7.25 C 6.015625 -7.296875 6.046875 -7.359375 6.09375 -7.390625 Z M 4.609375 -3.484375 C 4.625 -3.53125 4.671875 -3.484375 4.671875 -3.40625 C 4.671875 -3.328125 4.625 -3.265625 4.609375 -3.234375 C 4.5625 -3.1875 4.515625 -3.234375 4.515625 -3.3125 C 4.515625 -3.375 4.53125 -3.453125 4.609375 -3.484375 Z M 4.4375 -3.015625 C 4.484375 -3.015625 4.53125 -2.96875 4.53125 -2.921875 C 4.53125 -2.90625 4.484375 -2.859375 4.4375 -2.859375 C 4.390625 -2.859375 4.34375 -2.875 4.34375 -2.921875 C 4.34375 -2.96875 4.390625 -3.015625 4.4375 -3.015625 Z M 4.4375 -2.734375 C 4.4375 -2.65625 4.359375 -2.375 4.296875 -2.03125 C 4.21875 -1.734375 4.15625 -1.5625 4.15625 -1.65625 C 4.15625 -1.875 4.40625 -2.90625 4.4375 -2.734375 Z M 3.9375 -0.359375 C 3.90625 -0.171875 3.890625 0 3.859375 0.03125 C 3.8125 0.09375 3.84375 -0.359375 3.90625 -0.53125 C 3.953125 -0.640625 3.984375 -0.59375 3.9375 -0.359375 Z M 3.984375 -1.03125 C 3.984375 -1.125 4 -1.25 4.046875 -1.3125 C 4.125 -1.4375 4.125 -1.421875 4.125 -1.265625 C 4.15625 -1.203125 4.09375 -1.0625 4.078125 -0.984375 C 4 -0.890625 3.984375 -0.890625 3.984375 -1.03125 Z M 4.125 0.640625 L 4.03125 1.078125 L 4.078125 0.671875 C 4.09375 0.265625 4.15625 0.125 4.203125 0.1875 C 4.21875 0.21875 4.203125 0.4375 4.125 0.640625 Z M 5.25 0.9375 C 5.25 1 5.234375 0.953125 5.234375 0.84375 C 5.203125 0.71875 5.234375 0.671875 5.25 0.71875 C 5.28125 0.796875 5.28125 0.890625 5.25 0.9375 Z M 5.375 0.1875 C 5.375 0.3125 5.328125 0.40625 5.328125 0.40625 C 5.25 0.40625 5.28125 0.09375 5.34375 0.046875 C 5.375 0.03125 5.390625 0.09375 5.375 0.1875 Z M 5.296875 -4.046875 C 5.328125 -4 5.296875 -3.953125 5.25 -3.9375 C 5.15625 -3.859375 4.578125 -1.734375 4.3125 -0.390625 C 4.265625 -0.125 4.203125 0.09375 4.15625 0.125 C 4.125 0.125 4.09375 0.046875 4.125 -0.046875 C 4.15625 -0.125 4.21875 -0.484375 4.265625 -0.8125 C 4.34375 -1.171875 4.484375 -1.84375 4.625 -2.34375 C 4.75 -2.828125 4.890625 -3.375 4.9375 -3.578125 C 4.96875 -3.765625 5.03125 -3.984375 5.0625 -4.03125 C 5.078125 -4.125 5.109375 -4.21875 5.109375 -4.296875 C 5.15625 -4.5625 5.796875 -6.453125 5.875 -6.546875 C 5.96875 -6.640625 5.875 -6.0625 5.78125 -5.953125 C 5.734375 -5.90625 5.703125 -5.796875 5.703125 -5.703125 C 5.703125 -5.640625 5.6875 -5.5 5.640625 -5.421875 C 5.5 -5.125 5.234375 -4.125 5.296875 -4.046875 Z M 5.78125 -1.796875 C 5.703125 -1.78125 5.65625 -1.75 5.65625 -1.703125 C 5.65625 -1.65625 5.6875 -1.625 5.734375 -1.65625 C 5.78125 -1.671875 5.796875 -1.671875 5.828125 -1.625 C 5.828125 -1.578125 5.78125 -1.53125 5.75 -1.484375 C 5.640625 -1.4375 5.5625 -1.671875 5.640625 -1.875 C 5.6875 -2.03125 5.703125 -2.03125 5.796875 -1.921875 C 5.90625 -1.796875 5.90625 -1.796875 5.78125 -1.796875 Z M 6.3125 -3.40625 C 6.21875 -3.171875 6.109375 -2.90625 6.109375 -2.828125 C 6.109375 -2.765625 6.09375 -2.734375 6.0625 -2.765625 C 6.015625 -2.78125 6 -2.640625 6 -2.453125 C 6 -2.25 5.953125 -2.09375 5.90625 -2.015625 C 5.75 -1.875 5.859375 -2.875 6.046875 -3.234375 C 6.109375 -3.4375 6.15625 -3.59375 6.140625 -3.640625 C 6.109375 -3.6875 6.140625 -3.734375 6.1875 -3.734375 C 6.265625 -3.734375 6.265625 -3.8125 6.234375 -3.9375 C 6.1875 -4.046875 6.21875 -4.171875 6.265625 -4.203125 C 6.3125 -4.21875 6.3125 -4.203125 6.28125 -4.09375 C 6.265625 -4 6.265625 -3.984375 6.3125 -4.03125 C 6.5 -4.125 6.5 -3.859375 6.3125 -3.40625 Z M 6.453125 -4.53125 C 6.421875 -4.46875 6.375 -4.40625 6.359375 -4.40625 C 6.359375 -4.40625 6.328125 -4.46875 6.328125 -4.53125 C 6.328125 -4.609375 6.375 -4.65625 6.40625 -4.65625 C 6.453125 -4.65625 6.46875 -4.609375 6.453125 -4.53125 Z M 7.140625 -6.6875 C 7.09375 -6.765625 7 -6.578125 6.90625 -6.28125 C 6.6875 -5.640625 6.6875 -5.5625 6.8125 -5.65625 C 6.890625 -5.6875 6.90625 -5.6875 6.859375 -5.609375 C 6.828125 -5.5625 6.765625 -5.546875 6.71875 -5.5625 C 6.671875 -5.59375 6.640625 -5.546875 6.640625 -5.46875 C 6.640625 -5.390625 6.6875 -5.34375 6.71875 -5.34375 C 6.765625 -5.34375 6.78125 -5.234375 6.78125 -5.0625 C 6.78125 -4.875 6.765625 -4.75 6.6875 -4.75 C 6.59375 -4.75 6.578125 -4.828125 6.59375 -5.03125 C 6.640625 -5.234375 6.640625 -5.28125 6.578125 -5.1875 C 6.53125 -5.109375 6.5 -4.984375 6.5 -4.890625 C 6.5 -4.828125 6.453125 -4.75 6.421875 -4.75 C 6.328125 -4.75 6.375 -4.984375 6.453125 -5.25 C 6.5 -5.328125 6.53125 -5.421875 6.53125 -5.46875 C 6.53125 -5.515625 6.578125 -5.6875 6.671875 -5.859375 C 6.734375 -6.015625 6.828125 -6.3125 6.890625 -6.53125 C 7 -6.9375 7.140625 -7.078125 7.171875 -6.765625 C 7.171875 -6.671875 7.171875 -6.625 7.140625 -6.6875 Z M 7.296875 -6.375 C 7.203125 -6.375 7.203125 -6.421875 7.296875 -6.5 C 7.34375 -6.53125 7.359375 -6.5 7.359375 -6.453125 C 7.390625 -6.40625 7.34375 -6.375 7.296875 -6.375 Z M 7.34375 -7.625 C 7.25 -7.625 7.171875 -7.65625 7.171875 -7.703125 C 7.171875 -7.75 7.25 -7.765625 7.34375 -7.765625 C 7.4375 -7.765625 7.5 -7.75 7.5 -7.703125 C 7.5 -7.671875 7.4375 -7.625 7.34375 -7.625 Z M 7.75 -8.328125 C 7.578125 -8.203125 7.390625 -8.203125 7.453125 -8.296875 C 7.484375 -8.34375 7.578125 -8.390625 7.703125 -8.390625 C 7.84375 -8.390625 7.84375 -8.390625 7.75 -8.328125 Z M 7.84375 -8.53125 C 7.703125 -8.4375 7.671875 -8.796875 7.765625 -9.203125 C 7.8125 -9.453125 7.859375 -9.546875 7.859375 -9.421875 C 7.890625 -9.328125 7.921875 -9.265625 7.96875 -9.28125 C 7.984375 -9.3125 8.078125 -9.28125 8.125 -9.265625 C 8.234375 -9.203125 8.234375 -9.15625 8.078125 -9.015625 C 7.984375 -8.953125 7.890625 -8.796875 7.921875 -8.734375 C 7.921875 -8.65625 7.859375 -8.5625 7.84375 -8.53125 Z M 11.75 -8.59375 C 11.0625 -8.53125 10.484375 -8.4375 8.75 -8.015625 C 7.84375 -7.765625 7.8125 -7.765625 7.921875 -7.96875 C 7.984375 -8.109375 8.078125 -8.125 8.421875 -8.125 C 8.65625 -8.125 8.84375 -8.171875 8.875 -8.234375 C 8.921875 -8.375 9.328125 -8.4375 9.421875 -8.328125 C 9.5 -8.28125 9.515625 -8.28125 9.515625 -8.34375 C 9.515625 -8.390625 9.640625 -8.421875 9.78125 -8.4375 C 10.265625 -8.46875 10.453125 -8.515625 10.71875 -8.65625 C 11.078125 -8.84375 11.421875 -8.921875 11.484375 -8.828125 C 11.515625 -8.78125 11.609375 -8.75 11.703125 -8.75 C 11.875 -8.75 11.921875 -8.59375 11.75 -8.59375 Z M 14.78125 -9.109375 C 14.421875 -9.15625 14.296875 -9.140625 14.34375 -9.0625 C 14.390625 -9.015625 14.296875 -8.96875 14.0625 -9 C 13.890625 -9 13.6875 -8.96875 13.640625 -8.953125 C 13.546875 -8.875 12.734375 -8.78125 12.296875 -8.75 C 12.203125 -8.75 12.109375 -8.703125 12.109375 -8.6875 C 12.109375 -8.5625 11.96875 -8.59375 11.921875 -8.734375 C 11.828125 -8.921875 11.9375 -9.109375 12.0625 -9.015625 C 12.140625 -8.953125 12.1875 -8.953125 12.234375 -9.015625 C 12.25 -9.0625 12.453125 -9.09375 12.71875 -9.09375 C 13.03125 -9.0625 13.078125 -9.0625 12.90625 -9.109375 L 12.640625 -9.15625 L 12.921875 -9.234375 C 13.140625 -9.28125 13.234375 -9.265625 13.28125 -9.1875 C 13.328125 -9.140625 13.359375 -9.109375 13.359375 -9.1875 C 13.359375 -9.328125 14.390625 -9.46875 14.4375 -9.328125 C 14.46875 -9.28125 14.671875 -9.265625 15.03125 -9.265625 C 15.46875 -9.265625 15.5625 -9.265625 15.453125 -9.1875 C 15.34375 -9.109375 15.09375 -9.09375 14.78125 -9.109375 Z M 15.203125 -2.09375 C 15.234375 -2.0625 15.234375 -1.984375 15.203125 -1.9375 C 15.1875 -1.875 15.15625 -1.875 15.15625 -1.984375 C 15.15625 -2.0625 15.15625 -2.109375 15.203125 -2.09375 Z M 15.234375 -1.625 C 15.234375 -1.609375 15.203125 -1.484375 15.15625 -1.390625 C 15.09375 -1.21875 15.09375 -1.21875 15.09375 -1.421875 C 15.09375 -1.515625 15.109375 -1.625 15.15625 -1.65625 C 15.203125 -1.671875 15.234375 -1.671875 15.234375 -1.625 Z M 15.390625 -2.109375 C 15.34375 -2.109375 15.296875 -2.1875 15.296875 -2.25 C 15.296875 -2.328125 15.34375 -2.34375 15.390625 -2.328125 C 15.453125 -2.296875 15.46875 -2.25 15.46875 -2.203125 C 15.46875 -2.15625 15.453125 -2.109375 15.390625 -2.109375 Z M 16.421875 -5.875 C 16.40625 -5.703125 16.328125 -5.421875 16.265625 -5.25 C 16.1875 -5.078125 16.0625 -4.625 15.953125 -4.25 C 15.859375 -3.84375 15.734375 -3.328125 15.6875 -3.125 C 15.5625 -2.65625 15.46875 -2.515625 15.453125 -2.765625 C 15.453125 -2.859375 15.421875 -2.96875 15.421875 -3.046875 C 15.421875 -3.125 15.453125 -3.21875 15.46875 -3.265625 C 15.515625 -3.328125 15.5 -3.40625 15.453125 -3.4375 C 15.375 -3.484375 15.34375 -3.375 15.34375 -3 C 15.34375 -2.875 15.296875 -2.828125 15.25 -2.859375 C 15.15625 -2.875 15.15625 -2.953125 15.203125 -3.140625 C 15.25 -3.3125 15.296875 -3.5 15.328125 -3.578125 C 15.375 -3.765625 15.515625 -3.765625 15.546875 -3.578125 C 15.546875 -3.453125 15.546875 -3.453125 15.65625 -3.625 C 15.734375 -3.71875 15.75 -3.859375 15.734375 -3.90625 C 15.6875 -3.953125 15.703125 -4.03125 15.75 -4.09375 C 15.78125 -4.15625 15.859375 -4.3125 15.875 -4.484375 C 15.90625 -4.765625 15.90625 -4.765625 15.8125 -4.578125 C 15.609375 -4.25 15.640625 -4.5625 15.828125 -4.9375 C 15.921875 -5.125 15.96875 -5.234375 15.953125 -5.125 C 15.875 -4.875 16.046875 -4.984375 16.140625 -5.28125 C 16.21875 -5.46875 16.21875 -5.5625 16.140625 -5.65625 C 16.046875 -5.75 16.046875 -5.796875 16.171875 -5.875 C 16.265625 -5.953125 16.28125 -6 16.21875 -6.09375 C 16.125 -6.15625 16.140625 -6.1875 16.28125 -6.1875 C 16.453125 -6.1875 16.484375 -6.15625 16.421875 -5.875 Z M 16.6875 -6.625 C 16.59375 -6.546875 16.546875 -6.421875 16.546875 -6.375 C 16.546875 -6.3125 16.5 -6.265625 16.453125 -6.265625 C 16.328125 -6.265625 16.40625 -6.78125 16.546875 -6.890625 C 16.734375 -6.984375 16.84375 -6.8125 16.6875 -6.625 Z M 18.6875 -17.671875 C 18.75 -17.796875 18.78125 -17.765625 18.78125 -17.625 C 18.78125 -17.515625 18.75 -17.4375 18.703125 -17.4375 C 18.609375 -17.4375 18.609375 -17.515625 18.6875 -17.671875 Z M 18.234375 -16.5 C 18.28125 -16.5 18.296875 -16.546875 18.28125 -16.625 C 18.25 -16.6875 18.28125 -16.734375 18.296875 -16.734375 C 18.34375 -16.734375 18.375 -16.796875 18.34375 -16.859375 C 18.296875 -16.90625 18.296875 -16.9375 18.375 -16.890625 C 18.421875 -16.859375 18.46875 -16.9375 18.484375 -17.046875 C 18.515625 -17.171875 18.59375 -17.265625 18.640625 -17.265625 C 18.6875 -17.265625 18.65625 -17.09375 18.59375 -16.90625 C 18.421875 -16.453125 18.28125 -16.265625 18.1875 -16.40625 C 18.15625 -16.453125 18.1875 -16.5 18.234375 -16.5 Z M 17.84375 -15.203125 C 17.96875 -15.46875 18.078125 -15.75 18.078125 -15.8125 C 18.078125 -15.921875 18.328125 -16.328125 18.328125 -16.234375 C 18.328125 -16.21875 18.1875 -15.859375 18.03125 -15.421875 C 17.71875 -14.609375 17.71875 -14.609375 17.671875 -14.671875 C 17.65625 -14.703125 17.71875 -14.921875 17.84375 -15.203125 Z M 17.515625 -14 C 17.53125 -13.984375 17.515625 -13.953125 17.453125 -13.953125 C 17.40625 -13.953125 17.390625 -13.890625 17.40625 -13.8125 C 17.4375 -13.765625 17.453125 -13.6875 17.4375 -13.6875 C 17.40625 -13.6875 17.359375 -13.75 17.34375 -13.8125 C 17.296875 -13.9375 17.40625 -14.078125 17.515625 -14 Z M 19.015625 -14.125 C 18.859375 -14.171875 18.859375 -14.15625 18.90625 -13.90625 C 18.953125 -13.6875 18.953125 -13.640625 18.859375 -13.6875 C 18.734375 -13.71875 18.6875 -13.625 18.734375 -13.4375 C 18.734375 -13.40625 18.6875 -13.328125 18.640625 -13.28125 C 18.546875 -13.234375 18.546875 -13.1875 18.640625 -13.171875 C 18.78125 -13.125 18.75 -12.875 18.609375 -12.875 C 18.515625 -12.875 18.484375 -12.828125 18.515625 -12.765625 C 18.59375 -12.609375 18.515625 -12.375 18.390625 -12.375 C 18.375 -12.375 18.328125 -12.453125 18.328125 -12.515625 C 18.328125 -12.59375 18.296875 -12.609375 18.25 -12.5625 C 18.15625 -12.46875 17.84375 -11.515625 17.890625 -11.46875 C 17.921875 -11.421875 18.109375 -11.828125 18.203125 -12.140625 C 18.234375 -12.203125 18.28125 -12.28125 18.34375 -12.28125 C 18.46875 -12.28125 18.375 -11.875 18.109375 -11.109375 C 17.984375 -10.765625 17.875 -10.453125 17.875 -10.390625 C 17.875 -10.34375 17.796875 -10.171875 17.703125 -10.046875 C 17.625 -9.921875 17.5625 -9.8125 17.578125 -9.765625 C 17.609375 -9.734375 17.609375 -9.546875 17.5625 -9.375 C 17.453125 -9.0625 17.3125 -8.953125 17.3125 -9.203125 C 17.3125 -9.328125 17.296875 -9.328125 17.25 -9.234375 C 17.203125 -9.15625 17.171875 -9.15625 17.125 -9.265625 C 17.078125 -9.40625 17.203125 -9.734375 17.296875 -9.734375 C 17.3125 -9.734375 17.34375 -9.921875 17.34375 -10.140625 C 17.34375 -10.34375 17.390625 -10.578125 17.453125 -10.625 C 17.53125 -10.703125 17.53125 -10.65625 17.515625 -10.5 C 17.515625 -10.390625 17.453125 -10.21875 17.40625 -10.125 C 17.390625 -10.03125 17.4375 -10.078125 17.515625 -10.1875 C 17.578125 -10.34375 17.703125 -10.53125 17.75 -10.59375 C 17.828125 -10.671875 17.84375 -10.796875 17.828125 -10.859375 C 17.765625 -10.90625 17.796875 -10.9375 17.875 -10.890625 C 17.96875 -10.84375 17.96875 -10.84375 17.890625 -10.9375 C 17.765625 -11.03125 17.75 -11.03125 17.703125 -10.9375 C 17.65625 -10.859375 17.609375 -10.8125 17.5625 -10.859375 C 17.53125 -10.890625 17.53125 -10.953125 17.578125 -11.03125 C 17.625 -11.078125 17.75 -11.390625 17.828125 -11.703125 C 17.921875 -12.015625 18.078125 -12.515625 18.234375 -12.8125 C 18.34375 -13.125 18.484375 -13.484375 18.515625 -13.59375 C 18.546875 -13.75 18.609375 -13.90625 18.65625 -13.953125 C 18.6875 -14.03125 18.703125 -14.078125 18.65625 -14.078125 C 18.609375 -14.078125 18.640625 -14.125 18.734375 -14.203125 C 18.828125 -14.25 18.875 -14.34375 18.828125 -14.390625 C 18.78125 -14.484375 18.921875 -14.984375 19.015625 -14.984375 C 19.046875 -14.984375 19.0625 -14.828125 19.015625 -14.625 C 19 -14.390625 19.015625 -14.21875 19.0625 -14.15625 C 19.140625 -14.109375 19.140625 -14.078125 19.015625 -14.125 Z M 19.265625 -15.140625 C 19.234375 -15.109375 19.1875 -15.15625 19.1875 -15.25 C 19.1875 -15.34375 19.21875 -15.421875 19.265625 -15.421875 C 19.3125 -15.421875 19.328125 -15.375 19.359375 -15.296875 C 19.359375 -15.25 19.3125 -15.15625 19.265625 -15.140625 Z M 19.5 -15.640625 C 19.40625 -15.515625 19.265625 -15.46875 19.265625 -15.546875 C 19.265625 -15.5625 19.3125 -15.703125 19.40625 -15.859375 C 19.515625 -16.125 19.546875 -16.140625 19.578125 -15.953125 C 19.59375 -15.859375 19.546875 -15.703125 19.5 -15.640625 Z M 19.265625 -18.75 C 19.15625 -18.46875 19.015625 -18.125 18.953125 -18.03125 C 18.796875 -17.84375 18.796875 -17.921875 18.96875 -18.28125 C 19.1875 -18.703125 19.265625 -18.921875 19.28125 -19.21875 C 19.28125 -19.28125 19.3125 -19.359375 19.359375 -19.375 C 19.375 -19.40625 19.421875 -19.515625 19.421875 -19.59375 C 19.5 -20.03125 19.671875 -20.484375 19.765625 -20.484375 C 19.890625 -20.484375 19.859375 -20.34375 19.640625 -19.8125 C 19.515625 -19.546875 19.46875 -19.375 19.265625 -18.75 Z M 20.046875 -17.25 C 19.9375 -16.8125 19.671875 -16.359375 19.640625 -16.546875 C 19.640625 -16.625 19.6875 -16.71875 19.734375 -16.734375 C 19.78125 -16.765625 19.8125 -16.84375 19.8125 -16.90625 C 19.8125 -17.078125 20.046875 -17.65625 20.09375 -17.609375 C 20.125 -17.578125 20.09375 -17.40625 20.046875 -17.25 Z M 20.390625 -18.34375 C 20.359375 -18.203125 20.3125 -18.015625 20.296875 -17.921875 C 20.25 -17.828125 20.1875 -17.71875 20.171875 -17.71875 C 20.09375 -17.71875 20.125 -17.796875 20.21875 -17.984375 C 20.265625 -18.078125 20.265625 -18.1875 20.21875 -18.203125 C 20.171875 -18.25 20.21875 -18.34375 20.296875 -18.421875 C 20.4375 -18.5625 20.4375 -18.5625 20.390625 -18.34375 Z M 20.390625 -18.34375 "/></g></g></g><g fill="#17191b" fill-opacity="1"><g transform="translate(36.281511, 46.061033)"><g><path d="M 7.3125 -22.046875 C 7.3125 -22.0625 7.359375 -22.0625 7.40625 -22.046875 C 7.5 -22 7.5 -22.015625 7.4375 -22.09375 C 7.359375 -22.15625 7.265625 -22.15625 7.078125 -22.0625 L 6.828125 -21.921875 L 7.078125 -21.953125 C 7.21875 -21.953125 7.3125 -22 7.3125 -22.046875 Z M 4.890625 -20.34375 C 4.9375 -20.484375 4.921875 -20.484375 4.703125 -20.359375 C 4.5625 -20.296875 4.46875 -20.21875 4.46875 -20.1875 C 4.46875 -20.09375 4.875 -20.21875 4.890625 -20.34375 Z M 5.640625 -20.96875 C 5.921875 -21.15625 6.1875 -21.296875 6.234375 -21.28125 C 6.28125 -21.25 6.3125 -21.28125 6.265625 -21.328125 C 6.21875 -21.421875 5.96875 -21.46875 5.96875 -21.34375 C 5.96875 -21.328125 5.796875 -21.171875 5.59375 -21.0625 C 5.375 -20.921875 5.15625 -20.75 5.109375 -20.703125 C 4.9375 -20.484375 5.15625 -20.578125 5.640625 -20.96875 Z M 15.390625 -12.203125 C 15.296875 -12.0625 15.328125 -12.0625 15.546875 -12.234375 C 15.65625 -12.328125 15.90625 -12.515625 16.0625 -12.65625 L 16.359375 -12.921875 L 15.921875 -12.65625 C 15.6875 -12.5 15.453125 -12.296875 15.390625 -12.203125 Z M 2.234375 -18.0625 C 2.34375 -18.296875 2.34375 -18.328125 2.203125 -18.25 C 2.140625 -18.203125 2.0625 -18.078125 2.0625 -17.984375 C 2.03125 -17.75 2.0625 -17.75 2.234375 -18.0625 Z M 11.265625 -9.09375 C 11.265625 -9.1875 11.125 -9.140625 10.9375 -8.96875 L 10.71875 -8.78125 L 10.984375 -8.921875 C 11.15625 -9 11.265625 -9.09375 11.265625 -9.09375 Z M 15.15625 -13.328125 C 15.25 -13.453125 15.25 -13.453125 15.140625 -13.390625 C 15.0625 -13.328125 14.9375 -13.265625 14.890625 -13.234375 C 14.78125 -13.1875 14.78125 -13.1875 14.890625 -13.1875 C 14.96875 -13.171875 15.09375 -13.234375 15.15625 -13.328125 Z M 10.171875 -8.515625 C 10.171875 -8.421875 10.3125 -8.46875 10.5 -8.640625 L 10.71875 -8.796875 L 10.453125 -8.6875 C 10.296875 -8.609375 10.171875 -8.515625 10.171875 -8.515625 Z M 21.875 -22.359375 C 21.875 -22.40625 21.75 -22.59375 21.609375 -22.765625 C 21.46875 -22.921875 21.375 -23.125 21.375 -23.171875 C 21.375 -23.4375 19.6875 -24.53125 19.3125 -24.53125 C 19.234375 -24.53125 19.15625 -24.5625 19.15625 -24.578125 C 19.15625 -24.78125 18.03125 -25.15625 17.25 -25.25 C 16.171875 -25.34375 15.78125 -25.34375 14.75 -25.15625 C 13.21875 -24.875 11.875 -24.46875 10.703125 -23.890625 C 10.359375 -23.75 10.046875 -23.59375 9.984375 -23.59375 C 9.90625 -23.59375 9.8125 -23.546875 9.765625 -23.484375 C 9.6875 -23.40625 9.59375 -23.359375 9.546875 -23.359375 C 9.46875 -23.359375 9.203125 -23.234375 8.921875 -23.09375 C 8.640625 -22.953125 8.390625 -22.859375 8.34375 -22.859375 C 8.328125 -22.859375 8.171875 -22.765625 8.078125 -22.640625 C 7.96875 -22.515625 7.8125 -22.421875 7.71875 -22.421875 C 7.5625 -22.421875 7.4375 -22.3125 7.5625 -22.234375 C 7.65625 -22.1875 8.0625 -22.375 8.234375 -22.5625 C 8.296875 -22.671875 8.421875 -22.734375 8.484375 -22.734375 C 8.5625 -22.765625 9.015625 -22.953125 9.5 -23.1875 C 10.796875 -23.84375 12.515625 -24.515625 13.625 -24.796875 C 14.796875 -25.09375 16.40625 -25.28125 16.765625 -25.140625 C 17 -25.0625 16.984375 -25.046875 16.484375 -25.046875 C 16.015625 -25.046875 14.671875 -24.84375 14.171875 -24.75 C 14.078125 -24.734375 13.890625 -24.6875 13.75 -24.65625 C 13.59375 -24.625 13.4375 -24.578125 13.359375 -24.5625 C 13.28125 -24.53125 13.21875 -24.515625 13.21875 -24.515625 C 13.171875 -24.515625 12.90625 -24.421875 12.609375 -24.296875 C 12.296875 -24.171875 11.9375 -24.0625 11.796875 -24.03125 C 11.65625 -23.953125 11.421875 -23.890625 11.296875 -23.8125 C 11.15625 -23.75 11.015625 -23.703125 10.9375 -23.703125 C 10.84375 -23.703125 10.8125 -23.671875 10.90625 -23.625 C 10.984375 -23.578125 10.796875 -23.453125 10.359375 -23.265625 C 10 -23.125 9.6875 -22.953125 9.671875 -22.921875 C 9.59375 -22.8125 8.96875 -22.59375 8.84375 -22.640625 C 8.796875 -22.640625 8.6875 -22.625 8.59375 -22.546875 C 8.421875 -22.453125 8.421875 -22.40625 8.484375 -22.328125 C 8.5625 -22.3125 8.59375 -22.234375 8.5625 -22.203125 C 8.515625 -22.1875 8.4375 -22.1875 8.390625 -22.234375 C 8.25 -22.40625 8.15625 -22.359375 8.15625 -22.1875 C 8.15625 -22.09375 8.078125 -21.96875 7.984375 -21.921875 C 7.75 -21.796875 7.65625 -21.890625 7.859375 -22.046875 C 7.984375 -22.15625 7.984375 -22.15625 7.75 -22.046875 C 7.484375 -21.921875 7.484375 -21.890625 7.609375 -21.796875 C 7.75 -21.703125 7.75 -21.703125 7.625 -21.640625 C 7.53125 -21.609375 7.484375 -21.640625 7.484375 -21.65625 C 7.484375 -21.734375 7.4375 -21.75 7.359375 -21.75 C 7.265625 -21.75 7.25 -21.6875 7.25 -21.59375 C 7.265625 -21.484375 7.21875 -21.375 7.140625 -21.34375 C 7.03125 -21.328125 7.03125 -21.328125 7.140625 -21.4375 C 7.3125 -21.65625 7.140625 -21.609375 6.78125 -21.328125 C 6.625 -21.171875 6.5 -21.03125 6.53125 -21.015625 C 6.546875 -20.96875 6.53125 -20.890625 6.46875 -20.859375 C 6.40625 -20.84375 6.328125 -20.859375 6.28125 -20.921875 C 6.234375 -21.015625 6.21875 -21.015625 6.21875 -20.859375 C 6.21875 -20.765625 6.109375 -20.625 6 -20.546875 C 5.796875 -20.390625 5.734375 -20.453125 5.90625 -20.65625 C 5.953125 -20.703125 5.96875 -20.75 5.921875 -20.75 C 5.90625 -20.75 5.796875 -20.671875 5.734375 -20.609375 C 5.640625 -20.5 5.515625 -20.40625 5.421875 -20.390625 C 5.328125 -20.34375 5.296875 -20.296875 5.328125 -20.1875 C 5.375 -20.09375 5.34375 -20.078125 5.234375 -20.09375 C 5.125 -20.140625 4.984375 -20.046875 4.71875 -19.8125 C 4.53125 -19.625 4.359375 -19.46875 4.359375 -19.5 C 4.359375 -19.515625 4.4375 -19.625 4.515625 -19.6875 C 4.625 -19.8125 4.625 -19.828125 4.53125 -19.8125 C 4.46875 -19.78125 4.390625 -19.6875 4.34375 -19.625 C 4.296875 -19.515625 4.15625 -19.375 4.03125 -19.28125 C 3.890625 -19.1875 3.375 -18.78125 2.90625 -18.375 C 2.375 -17.921875 1.984375 -17.65625 1.921875 -17.671875 C 1.84375 -17.71875 1.84375 -17.703125 1.875 -17.625 C 1.921875 -17.578125 1.890625 -17.5625 1.828125 -17.5625 C 1.78125 -17.578125 1.578125 -17.453125 1.421875 -17.296875 C 1.25 -17.125 1.03125 -16.90625 0.890625 -16.8125 C 0.625 -16.59375 -0.03125 -15.859375 0.046875 -15.78125 C 0.046875 -15.78125 0.03125 -15.6875 -0.046875 -15.609375 C -0.1875 -15.453125 -0.4375 -14.75 -0.4375 -14.46875 C -0.4375 -14.3125 -0.359375 -14.15625 -0.28125 -14.0625 C -0.234375 -13.984375 -0.171875 -13.84375 -0.171875 -13.765625 C -0.171875 -13.6875 -0.125 -13.59375 -0.046875 -13.53125 C 0.03125 -13.453125 0.1875 -13.234375 0.328125 -13.078125 C 0.625 -12.734375 1.109375 -12.5 1.15625 -12.65625 C 1.171875 -12.71875 1.21875 -12.765625 1.265625 -12.765625 C 1.390625 -12.765625 2.09375 -13.53125 2.09375 -13.625 C 2.09375 -13.6875 2.03125 -13.8125 1.9375 -13.90625 C 1.796875 -14.0625 1.796875 -14.109375 1.875 -14.265625 C 1.96875 -14.4375 1.9375 -14.484375 1.875 -14.5625 C 1.75 -14.65625 1.78125 -14.703125 1.890625 -14.9375 C 2.203125 -15.5625 4.484375 -17.796875 5.859375 -18.796875 C 6.109375 -19.015625 6.375 -19.21875 6.421875 -19.265625 C 6.546875 -19.375 6.8125 -19.546875 7.03125 -19.640625 C 7.125 -19.6875 7.34375 -19.859375 7.5 -20 C 7.796875 -20.3125 8.078125 -20.484375 8.515625 -20.671875 C 8.640625 -20.71875 8.75 -20.796875 8.75 -20.8125 C 8.75 -20.84375 8.875 -20.921875 9.015625 -20.984375 C 9.15625 -21.0625 9.421875 -21.21875 9.625 -21.34375 C 10.078125 -21.640625 11.78125 -22.453125 12.453125 -22.671875 C 14.53125 -23.359375 14.921875 -23.453125 15.859375 -23.578125 C 16.046875 -23.59375 16.3125 -23.625 16.453125 -23.65625 C 16.625 -23.671875 16.734375 -23.671875 16.734375 -23.59375 C 16.734375 -23.546875 16.84375 -23.53125 16.953125 -23.53125 C 17.171875 -23.53125 17.171875 -23.546875 17.03125 -23.59375 C 16.84375 -23.703125 17.21875 -23.65625 17.921875 -23.53125 C 18.125 -23.484375 18.4375 -23.4375 18.640625 -23.40625 C 18.796875 -23.359375 19.140625 -23.28125 19.359375 -23.21875 C 19.578125 -23.140625 19.828125 -23.09375 19.9375 -23.078125 C 20.25 -23.03125 20.4375 -22.921875 20.390625 -22.828125 C 20.34375 -22.765625 20.359375 -22.765625 20.453125 -22.78125 C 20.53125 -22.8125 20.578125 -22.8125 20.578125 -22.765625 C 20.578125 -22.734375 20.703125 -22.59375 20.84375 -22.453125 L 21.125 -22.1875 L 21.078125 -21.328125 C 21.0625 -20.53125 21.015625 -20.390625 20.75 -19.78125 C 20.3125 -18.859375 19.640625 -17.890625 18.828125 -17 C 17.671875 -15.75 17.625 -15.6875 17.75 -15.609375 C 17.828125 -15.5625 17.796875 -15.515625 17.625 -15.390625 C 17.515625 -15.328125 17.359375 -15.28125 17.34375 -15.296875 C 17.296875 -15.328125 17.25 -15.296875 17.21875 -15.234375 C 17.171875 -15.15625 17.203125 -15.140625 17.296875 -15.15625 C 17.453125 -15.234375 17.4375 -15.0625 17.25 -14.921875 C 17.171875 -14.875 17.078125 -14.71875 17.03125 -14.625 C 17 -14.53125 16.90625 -14.4375 16.8125 -14.421875 C 16.640625 -14.359375 16.578125 -14.109375 16.71875 -14.109375 C 16.796875 -14.109375 17.71875 -15.015625 19.09375 -16.421875 C 19.5 -16.859375 19.859375 -17.21875 19.90625 -17.21875 C 19.9375 -17.21875 19.890625 -17.15625 19.8125 -17.046875 C 19.734375 -16.953125 19.671875 -16.8125 19.640625 -16.6875 C 19.640625 -16.59375 19.515625 -16.359375 19.375 -16.21875 C 19.234375 -16.046875 18.90625 -15.6875 18.65625 -15.390625 C 18.421875 -15.140625 18.125 -14.796875 18.015625 -14.703125 C 17.921875 -14.578125 17.875 -14.46875 17.890625 -14.4375 C 17.921875 -14.390625 18.390625 -14.890625 18.859375 -15.453125 C 18.953125 -15.546875 19.046875 -15.59375 19.09375 -15.5625 C 19.15625 -15.515625 19.109375 -15.453125 18.96875 -15.375 C 18.859375 -15.296875 18.75 -15.203125 18.75 -15.1875 C 18.75 -15.140625 18.34375 -14.625 17.984375 -14.265625 C 17.921875 -14.203125 17.875 -14.078125 17.890625 -14.03125 C 17.921875 -13.984375 17.890625 -13.90625 17.828125 -13.890625 C 17.765625 -13.859375 17.765625 -13.890625 17.796875 -13.984375 C 17.84375 -14.109375 17.796875 -14.109375 17.625 -13.9375 C 17.453125 -13.796875 17.4375 -13.71875 17.515625 -13.671875 C 17.578125 -13.625 17.5625 -13.59375 17.453125 -13.625 C 17.34375 -13.625 17.296875 -13.59375 17.296875 -13.53125 C 17.265625 -13.4375 17.25 -13.390625 17.171875 -13.390625 C 17.125 -13.390625 16.859375 -13.1875 16.59375 -12.953125 C 16.328125 -12.734375 16.046875 -12.46875 15.921875 -12.375 C 15.15625 -11.6875 13.40625 -10.3125 13.3125 -10.3125 C 13.265625 -10.3125 13.1875 -10.234375 13.140625 -10.140625 C 13.078125 -10.046875 13 -9.984375 12.953125 -9.984375 C 12.90625 -9.984375 12.8125 -9.921875 12.765625 -9.875 C 12.546875 -9.71875 11.46875 -8.96875 11.421875 -8.96875 C 11.390625 -8.96875 11.109375 -8.796875 10.796875 -8.59375 C 10.484375 -8.390625 10.1875 -8.203125 10.140625 -8.203125 C 10.09375 -8.203125 10.03125 -8.15625 9.984375 -8.078125 C 9.859375 -7.9375 8.0625 -7.03125 8.015625 -7.078125 C 7.9375 -7.140625 8.171875 -7.3125 8.5625 -7.5 C 8.78125 -7.578125 8.890625 -7.671875 8.84375 -7.703125 C 8.796875 -7.703125 8.5625 -7.625 8.328125 -7.5 C 7.921875 -7.296875 7.75 -7.3125 7.84375 -7.578125 C 7.859375 -7.625 8.109375 -7.8125 8.375 -7.96875 C 8.640625 -8.125 9 -8.34375 9.140625 -8.4375 C 9.328125 -8.53125 9.515625 -8.65625 9.59375 -8.6875 C 9.640625 -8.734375 9.734375 -8.78125 9.765625 -8.796875 C 9.78125 -8.84375 10.046875 -9.015625 10.5 -9.328125 C 10.625 -9.40625 10.84375 -9.515625 10.953125 -9.59375 C 11.109375 -9.671875 11.375 -9.828125 11.5625 -9.984375 C 11.75 -10.09375 12.109375 -10.359375 12.359375 -10.53125 C 12.609375 -10.71875 12.828125 -10.859375 12.859375 -10.890625 C 12.875 -10.9375 13.078125 -11.0625 13.265625 -11.171875 C 13.671875 -11.4375 13.671875 -11.4375 14.46875 -12.109375 C 15.5625 -13 15.96875 -13.328125 16.015625 -13.328125 C 16.125 -13.328125 16.40625 -13.6875 16.359375 -13.765625 C 16.328125 -13.8125 16.328125 -13.84375 16.40625 -13.84375 C 16.453125 -13.8125 16.53125 -13.859375 16.546875 -13.90625 C 16.578125 -14 16.546875 -14.03125 16.421875 -13.984375 C 16.359375 -13.953125 16.265625 -13.9375 16.234375 -13.9375 C 16.1875 -13.9375 16.140625 -13.859375 16.125 -13.765625 C 16.09375 -13.671875 16.046875 -13.59375 16 -13.59375 C 15.828125 -13.640625 15.734375 -13.578125 15.78125 -13.453125 C 15.8125 -13.40625 15.78125 -13.328125 15.703125 -13.328125 C 15.65625 -13.328125 15.546875 -13.28125 15.453125 -13.1875 C 15.34375 -13.125 15.296875 -13.09375 15.34375 -13.171875 C 15.390625 -13.234375 15.375 -13.265625 15.328125 -13.21875 C 15.25 -13.1875 15.203125 -13.125 15.203125 -13.046875 C 15.203125 -12.96875 15.09375 -12.859375 14.921875 -12.765625 C 14.75 -12.65625 14.609375 -12.515625 14.53125 -12.421875 C 14.484375 -12.328125 14.4375 -12.328125 14.421875 -12.40625 C 14.359375 -12.515625 14.203125 -12.453125 14.25 -12.296875 C 14.265625 -12.25 14.109375 -12.0625 13.859375 -11.921875 C 13.625 -11.75 13.359375 -11.53125 13.265625 -11.4375 C 13.171875 -11.328125 13.046875 -11.265625 13.03125 -11.296875 C 12.96875 -11.328125 12.953125 -11.296875 12.953125 -11.25 C 12.953125 -11.203125 12.90625 -11.15625 12.859375 -11.15625 C 12.8125 -11.15625 12.6875 -11.078125 12.59375 -10.984375 C 12.40625 -10.796875 11.5625 -10.234375 11.484375 -10.234375 C 11.46875 -10.234375 11.34375 -10.140625 11.21875 -10.046875 C 11.125 -9.953125 10.796875 -9.734375 10.53125 -9.5625 C 9.328125 -8.84375 8.59375 -8.375 8.15625 -8.03125 C 7.75 -7.75 7.703125 -7.71875 7.65625 -7.84375 C 7.5625 -8.078125 7.765625 -8.421875 8.125 -8.640625 C 8.46875 -8.796875 8.25 -8.828125 7.921875 -8.65625 C 7.5625 -8.484375 7.484375 -8.515625 7.484375 -8.890625 C 7.484375 -9.0625 7 -9.40625 6.859375 -9.328125 C 6.8125 -9.3125 6.828125 -9.375 6.9375 -9.46875 C 7 -9.59375 7.046875 -9.78125 7.046875 -9.90625 C 7.046875 -10.03125 7.125 -10.1875 7.203125 -10.296875 C 7.265625 -10.390625 7.3125 -10.65625 7.34375 -10.859375 C 7.34375 -11.109375 7.40625 -11.328125 7.453125 -11.375 C 7.53125 -11.421875 7.578125 -11.515625 7.609375 -11.578125 C 7.625 -11.65625 7.65625 -11.75 7.671875 -11.828125 C 7.890625 -12.359375 8.171875 -13.359375 8.171875 -13.625 C 8.171875 -13.8125 8.203125 -13.9375 8.296875 -13.9375 C 8.34375 -13.9375 8.390625 -13.984375 8.390625 -14.03125 C 8.390625 -14.109375 8.46875 -14.25 8.53125 -14.390625 C 8.609375 -14.53125 8.640625 -14.65625 8.59375 -14.671875 C 8.53125 -14.703125 8.640625 -14.984375 8.796875 -15.328125 C 8.953125 -15.640625 9.09375 -16.046875 9.09375 -16.21875 C 9.09375 -16.40625 9.140625 -16.546875 9.15625 -16.546875 C 9.28125 -16.546875 9.328125 -16.890625 9.234375 -17.125 C 9.046875 -17.625 8.03125 -18.234375 7.625 -18.0625 C 7.390625 -17.96875 7.046875 -17.671875 7.046875 -17.5625 C 7.046875 -17.515625 6.828125 -17.15625 6.59375 -16.765625 C 6.328125 -16.375 6.015625 -15.859375 5.875 -15.5625 C 5.75 -15.28125 5.609375 -15.015625 5.5625 -14.984375 C 5.421875 -14.921875 5.4375 -14.609375 5.5625 -14.578125 C 5.609375 -14.578125 5.703125 -14.578125 5.75 -14.5625 C 5.796875 -14.5625 5.875 -14.53125 5.921875 -14.53125 C 6 -14.53125 6 -14.421875 5.875 -14.171875 C 5.78125 -14 5.703125 -13.796875 5.703125 -13.6875 C 5.703125 -13.59375 5.6875 -13.5 5.640625 -13.453125 C 5.59375 -13.4375 5.546875 -13.328125 5.546875 -13.21875 C 5.546875 -13.125 5.515625 -13 5.46875 -12.953125 C 5.421875 -12.90625 5.03125 -11.78125 4.984375 -11.578125 C 4.984375 -11.484375 4.75 -10.84375 4.65625 -10.59375 C 4.515625 -10.265625 4.03125 -8.78125 4 -8.640625 C 3.984375 -8.5625 3.953125 -8.46875 3.90625 -8.390625 C 3.890625 -8.34375 3.84375 -8.125 3.8125 -7.9375 C 3.8125 -7.75 3.765625 -7.578125 3.6875 -7.5625 C 3.640625 -7.53125 3.625 -7.4375 3.625 -7.3125 C 3.625 -7.09375 3.53125 -7.078125 3.375 -7.21875 C 3.21875 -7.390625 3.171875 -7.25 3.3125 -7 C 3.4375 -6.8125 3.453125 -6.765625 3.328125 -6.3125 C 3.265625 -6.046875 3.1875 -5.65625 3.171875 -5.46875 C 3.140625 -5.25 3.0625 -5.03125 3 -4.96875 C 2.921875 -4.875 2.859375 -4.703125 2.828125 -4.5625 C 2.78125 -4.359375 2.78125 -4.34375 2.859375 -4.4375 C 2.921875 -4.53125 2.953125 -4.515625 2.953125 -4.34375 C 2.953125 -4.21875 2.90625 -4.171875 2.828125 -4.203125 C 2.703125 -4.25 2.46875 -3.5 2.5625 -3.328125 C 2.59375 -3.28125 2.59375 -3.265625 2.546875 -3.265625 C 2.46875 -3.265625 2.25 -2.609375 2.234375 -2.28125 C 2.203125 -2.1875 2.1875 -2.109375 2.1875 -2.109375 C 2.109375 -2.109375 1.984375 -0.953125 2.015625 -0.328125 C 2.015625 0.4375 2.28125 1.0625 2.78125 1.484375 C 3 1.625 3.1875 1.78125 3.21875 1.78125 C 3.234375 1.78125 3.328125 1.828125 3.4375 1.890625 C 3.5 1.96875 3.625 2.03125 3.6875 2.0625 C 3.9375 2.140625 4.25 2.09375 4.21875 1.96875 C 4.203125 1.890625 4.25 1.875 4.3125 1.890625 C 4.484375 1.96875 4.484375 1.9375 4.265625 1.578125 C 4.046875 1.15625 4.046875 0.59375 4.296875 -0.328125 C 4.390625 -0.765625 4.484375 -1.296875 4.46875 -1.53125 C 4.46875 -1.75 4.515625 -2.0625 4.578125 -2.203125 C 4.65625 -2.34375 4.671875 -2.5 4.65625 -2.546875 C 4.609375 -2.5625 4.625 -2.59375 4.671875 -2.59375 C 4.828125 -2.59375 5.328125 -4.265625 5.203125 -4.34375 C 5.125 -4.390625 5.15625 -4.4375 5.234375 -4.515625 C 5.296875 -4.5625 5.390625 -4.71875 5.421875 -4.875 C 5.5 -5.203125 5.59375 -5.328125 5.90625 -5.5 C 6.140625 -5.609375 6.140625 -5.609375 6.109375 -5.5 C 6.0625 -5.390625 6.09375 -5.34375 6.15625 -5.34375 C 6.234375 -5.34375 6.453125 -5.125 6.640625 -4.828125 C 7.078125 -4.203125 8.203125 -3.0625 8.828125 -2.640625 C 9.09375 -2.453125 9.5 -2.15625 9.765625 -1.96875 C 10.578125 -1.359375 12.328125 -0.625 13.234375 -0.53125 C 13.484375 -0.484375 13.796875 -0.4375 13.953125 -0.40625 C 14.296875 -0.328125 14.5625 -0.359375 15.296875 -0.484375 C 16.265625 -0.640625 16.890625 -0.8125 17.078125 -0.984375 C 17.203125 -1.078125 17.40625 -1.21875 17.578125 -1.296875 C 18.015625 -1.46875 18.421875 -1.890625 18.421875 -2.15625 C 18.421875 -2.296875 18.375 -2.421875 18.328125 -2.453125 C 18.28125 -2.46875 17.984375 -2.34375 17.671875 -2.140625 C 17.359375 -1.921875 16.984375 -1.734375 16.8125 -1.671875 C 16.375 -1.5625 15.46875 -1.625 14.703125 -1.828125 C 14 -2.015625 12.515625 -2.734375 11.9375 -3.140625 C 11.15625 -3.71875 10.3125 -4.390625 10.078125 -4.65625 C 9.109375 -5.65625 8.890625 -5.90625 8.890625 -6 C 8.890625 -6.046875 8.84375 -6.140625 8.78125 -6.1875 C 8.59375 -6.359375 8.640625 -6.375 9.0625 -6.578125 C 9.28125 -6.640625 9.71875 -6.890625 10.03125 -7.09375 C 10.34375 -7.296875 10.890625 -7.609375 11.25 -7.796875 C 11.609375 -8.015625 11.921875 -8.171875 11.921875 -8.234375 C 11.9375 -8.28125 12 -8.296875 12.0625 -8.296875 C 12.140625 -8.296875 12.234375 -8.375 12.296875 -8.4375 C 12.359375 -8.53125 12.453125 -8.640625 12.515625 -8.65625 C 12.90625 -8.84375 13.6875 -9.40625 13.90625 -9.640625 C 14 -9.734375 14.125 -9.8125 14.171875 -9.8125 C 14.25 -9.8125 14.3125 -9.859375 14.359375 -9.921875 C 14.421875 -10.03125 14.796875 -10.3125 15.140625 -10.53125 C 15.5 -10.75 16.140625 -11.25 16.546875 -11.625 C 16.796875 -11.875 16.984375 -12.046875 16.984375 -12.015625 C 16.984375 -12 17.15625 -12.140625 17.34375 -12.296875 C 17.5625 -12.515625 17.75 -12.640625 17.765625 -12.609375 C 17.828125 -12.5625 17.828125 -12.59375 17.796875 -12.640625 C 17.75 -12.71875 17.765625 -12.765625 17.828125 -12.765625 C 17.921875 -12.765625 19.421875 -14.203125 19.421875 -14.296875 C 19.421875 -14.34375 19.640625 -14.578125 19.90625 -14.828125 C 20.171875 -15.0625 20.34375 -15.28125 20.3125 -15.28125 C 20.265625 -15.28125 20.3125 -15.328125 20.40625 -15.375 C 20.5 -15.390625 20.65625 -15.5625 20.75 -15.703125 C 20.8125 -15.859375 20.9375 -16.046875 20.984375 -16.09375 C 21.0625 -16.171875 21.109375 -16.265625 21.109375 -16.3125 C 21.109375 -16.359375 21.15625 -16.359375 21.203125 -16.328125 C 21.28125 -16.28125 21.28125 -16.3125 21.25 -16.375 C 21.21875 -16.453125 21.296875 -16.625 21.4375 -16.765625 C 21.5625 -16.890625 21.703125 -17.125 21.78125 -17.265625 C 21.828125 -17.40625 21.953125 -17.5625 22 -17.5625 C 22.0625 -17.5625 22.109375 -17.578125 22.09375 -17.625 C 22.046875 -17.671875 22.0625 -17.71875 22.109375 -17.71875 C 22.1875 -17.71875 22.1875 -17.796875 22.15625 -17.890625 C 22.109375 -18.015625 22.140625 -18.0625 22.234375 -18.0625 C 22.3125 -18.0625 22.40625 -18.203125 22.46875 -18.484375 C 22.625 -19.015625 22.625 -19.0625 22.640625 -20.25 L 22.671875 -21.125 L 22.25 -21.703125 C 22.046875 -22.015625 21.875 -22.3125 21.875 -22.359375 Z M 6.6875 -19.984375 C 6.671875 -19.9375 6.578125 -19.90625 6.5 -19.90625 C 6.453125 -19.90625 6.375 -19.9375 6.375 -19.984375 C 6.375 -20.046875 6.46875 -20.078125 6.546875 -20.078125 C 6.671875 -20.078125 6.71875 -20.046875 6.6875 -19.984375 Z M 16.671875 -24.578125 C 16.796875 -24.609375 16.984375 -24.609375 17.09375 -24.578125 C 17.203125 -24.5625 17.078125 -24.5625 16.859375 -24.5625 C 16.625 -24.5625 16.546875 -24.578125 16.671875 -24.578125 Z M 13.53125 -24.125 C 13.640625 -24.125 13.9375 -24.171875 14.75 -24.375 C 15.609375 -24.53125 16.28125 -24.609375 16.375 -24.515625 C 16.40625 -24.46875 16.28125 -24.4375 16.140625 -24.4375 C 15.46875 -24.421875 14.15625 -24.171875 13.890625 -24.03125 C 13.671875 -23.90625 13.453125 -23.90625 13.453125 -24.03125 C 13.453125 -24.078125 13.484375 -24.109375 13.53125 -24.125 Z M 11.34375 -23.265625 C 11.390625 -23.265625 11.4375 -23.234375 11.4375 -23.1875 C 11.4375 -23.140625 11.390625 -23.09375 11.34375 -23.09375 C 11.296875 -23.09375 11.265625 -23.140625 11.265625 -23.1875 C 11.265625 -23.234375 11.296875 -23.265625 11.34375 -23.265625 Z M 17.078125 -24.203125 C 16.953125 -24.109375 16.640625 -24.03125 16.28125 -23.984375 C 15.390625 -23.890625 14.96875 -23.8125 13.5 -23.34375 C 12.765625 -23.09375 12.109375 -22.90625 12.0625 -22.90625 C 12.015625 -22.875 11.578125 -22.6875 11.109375 -22.453125 C 10.625 -22.203125 9.984375 -21.921875 9.671875 -21.78125 C 9.046875 -21.484375 7.71875 -20.703125 7.65625 -20.578125 C 7.625 -20.53125 7.5 -20.453125 7.390625 -20.453125 C 7.265625 -20.4375 7.125 -20.40625 7.03125 -20.359375 C 6.9375 -20.34375 7.09375 -20.484375 7.40625 -20.703125 C 7.71875 -20.921875 8.015625 -21.078125 8.0625 -21.078125 C 8.109375 -21.078125 8.15625 -21.109375 8.171875 -21.15625 C 8.203125 -21.21875 8.875 -21.65625 8.953125 -21.65625 C 9 -21.65625 9.1875 -21.796875 9.421875 -21.953125 C 9.859375 -22.203125 10.8125 -22.71875 11.703125 -23.09375 C 12.140625 -23.28125 13.984375 -23.90625 14.25 -23.953125 C 14.34375 -23.984375 14.515625 -24.03125 14.625 -24.0625 C 14.75 -24.078125 15.25 -24.171875 15.75 -24.21875 C 16.484375 -24.3125 16.71875 -24.3125 16.734375 -24.25 C 16.796875 -24.171875 16.84375 -24.171875 16.90625 -24.265625 C 16.984375 -24.3125 17.078125 -24.375 17.15625 -24.375 C 17.25 -24.375 17.21875 -24.3125 17.078125 -24.203125 Z M 17.4375 -24.25 C 17.390625 -24.109375 17.3125 -24.078125 17.3125 -24.171875 C 17.3125 -24.21875 17.359375 -24.296875 17.40625 -24.3125 C 17.453125 -24.34375 17.453125 -24.3125 17.4375 -24.25 Z M 17.515625 -24.9375 C 17.359375 -24.9375 17.21875 -24.984375 17.203125 -25.046875 C 17.15625 -25.109375 17.65625 -25.0625 17.71875 -24.984375 C 17.75 -24.96875 17.65625 -24.9375 17.515625 -24.9375 Z M 18.390625 -24.109375 C 18.328125 -24.109375 18.234375 -24.15625 18.203125 -24.203125 C 18.109375 -24.34375 18.203125 -24.375 18.375 -24.21875 C 18.515625 -24.125 18.515625 -24.109375 18.390625 -24.109375 Z M 18.828125 -24.03125 C 18.734375 -24.109375 18.734375 -24.109375 18.859375 -24.109375 C 18.921875 -24.109375 19.015625 -24.078125 19.046875 -24.03125 C 19.109375 -23.90625 19 -23.90625 18.828125 -24.03125 Z M 19.765625 -23.703125 C 19.671875 -23.703125 19.328125 -23.859375 19.328125 -23.890625 C 19.328125 -23.984375 19.46875 -23.9375 19.640625 -23.8125 C 19.734375 -23.75 19.78125 -23.703125 19.765625 -23.703125 Z M 3.734375 -1.890625 C 3.71875 -1.828125 3.71875 -1.84375 3.6875 -1.9375 C 3.6875 -2.015625 3.71875 -2.09375 3.734375 -2.0625 C 3.765625 -2.015625 3.765625 -1.9375 3.734375 -1.890625 Z M 3.953125 -5.515625 C 3.9375 -5.515625 3.890625 -5.375 3.890625 -5.203125 C 3.90625 -5.03125 3.796875 -4.578125 3.671875 -4.203125 C 3.359375 -3.234375 2.828125 -0.984375 2.703125 -0.09375 C 2.640625 0.5 2.59375 0.359375 2.5625 -0.484375 C 2.5625 -1 2.6875 -1.75 2.953125 -2.734375 C 3.234375 -3.953125 3.4375 -4.671875 3.5 -4.84375 C 3.59375 -5.109375 3.625 -5.4375 3.5 -5.4375 C 3.453125 -5.4375 3.484375 -5.46875 3.546875 -5.515625 C 3.625 -5.59375 3.6875 -5.65625 3.6875 -5.734375 C 3.6875 -5.921875 3.84375 -5.875 3.953125 -5.6875 C 4 -5.59375 4 -5.515625 3.953125 -5.515625 Z M 3.84375 -6.234375 C 3.8125 -6.375 3.859375 -6.453125 3.953125 -6.5 C 4.171875 -6.546875 4.265625 -6.46875 4.15625 -6.359375 C 4.09375 -6.3125 4.046875 -6.21875 4.09375 -6.140625 C 4.125 -6.0625 4.078125 -6.015625 4 -6.015625 C 3.9375 -6.015625 3.859375 -6.109375 3.84375 -6.234375 Z M 4.25 -3.265625 C 4.21875 -3.1875 4.15625 -3.171875 4.125 -3.171875 C 3.984375 -3.171875 4 -3.234375 4.171875 -3.28125 C 4.25 -3.3125 4.265625 -3.3125 4.25 -3.265625 Z M 4.625 -5.15625 C 4.578125 -5.109375 4.53125 -5.125 4.53125 -5.1875 C 4.53125 -5.234375 4.578125 -5.28125 4.625 -5.28125 C 4.671875 -5.28125 4.703125 -5.25 4.703125 -5.234375 C 4.703125 -5.203125 4.671875 -5.1875 4.625 -5.15625 Z M 4.875 -7.40625 C 4.921875 -7.4375 4.96875 -7.4375 4.96875 -7.359375 C 4.96875 -7.3125 4.921875 -7.296875 4.875 -7.296875 C 4.765625 -7.296875 4.765625 -7.34375 4.875 -7.40625 Z M 4.984375 -6.109375 C 4.921875 -6.109375 4.875 -6.140625 4.875 -6.1875 C 4.875 -6.234375 4.921875 -6.234375 4.984375 -6.21875 C 5.0625 -6.1875 5.125 -6.15625 5.125 -6.140625 C 5.125 -6.109375 5.0625 -6.109375 4.984375 -6.109375 Z M 5.59375 -10.765625 C 5.421875 -10.3125 5.25 -9.71875 5.1875 -9.421875 C 5.109375 -9.15625 4.984375 -8.84375 4.96875 -8.75 C 4.921875 -8.65625 4.796875 -8.25 4.671875 -7.84375 C 4.5625 -7.453125 4.4375 -7.125 4.40625 -7.125 C 4.390625 -7.125 4.3125 -7.09375 4.25 -7.078125 C 4.171875 -7.046875 4.125 -7.046875 4.125 -7.09375 C 4.125 -7.25 5.03125 -10.09375 5.15625 -10.3125 C 5.234375 -10.4375 5.25 -10.578125 5.234375 -10.625 C 5.203125 -10.671875 5.234375 -10.75 5.296875 -10.765625 C 5.34375 -10.8125 5.375 -10.890625 5.375 -10.984375 C 5.375 -11.078125 5.46875 -11.34375 5.59375 -11.578125 C 5.6875 -11.828125 5.78125 -12.0625 5.75 -12.109375 C 5.734375 -12.140625 5.75 -12.15625 5.828125 -12.15625 C 6 -12.15625 5.953125 -11.921875 5.59375 -10.765625 Z M 5.96875 -12.25 C 5.921875 -12.25 5.875 -12.28125 5.875 -12.328125 C 5.875 -12.375 5.921875 -12.421875 5.96875 -12.421875 C 6.015625 -12.421875 6.046875 -12.375 6.046875 -12.328125 C 6.046875 -12.28125 6.015625 -12.25 5.96875 -12.25 Z M 6.21875 -10.234375 C 6.140625 -10.125 6.140625 -10.140625 6.140625 -10.296875 C 6.140625 -10.390625 6.1875 -10.484375 6.21875 -10.484375 C 6.265625 -10.484375 6.3125 -10.453125 6.3125 -10.40625 C 6.3125 -10.390625 6.265625 -10.3125 6.21875 -10.234375 Z M 6.5 -11.25 C 6.46875 -11.078125 6.421875 -10.859375 6.375 -10.765625 L 6.3125 -10.59375 L 6.3125 -10.765625 C 6.3125 -10.859375 6.359375 -11.078125 6.421875 -11.25 L 6.546875 -11.53125 Z M 7.65625 -4.5625 C 7.5625 -4.671875 7.5625 -4.671875 7.671875 -4.625 C 7.75 -4.609375 7.8125 -4.53125 7.8125 -4.515625 C 7.8125 -4.390625 7.765625 -4.40625 7.65625 -4.5625 Z M 9.515625 -3.40625 C 9.5625 -3.40625 9.78125 -3.28125 9.984375 -3.140625 C 10.140625 -3 10.53125 -2.6875 10.8125 -2.5 C 11.109375 -2.296875 11.34375 -2.109375 11.34375 -2.0625 C 11.34375 -1.96875 11.375 -1.9375 10.75 -2.40625 C 9.5625 -3.234375 9.328125 -3.40625 9.515625 -3.40625 Z M 7.96875 -4.21875 C 7.921875 -4.296875 7.9375 -4.3125 8.03125 -4.296875 C 8.109375 -4.265625 8.15625 -4.21875 8.15625 -4.171875 C 8.15625 -4.046875 8.015625 -4.078125 7.96875 -4.21875 Z M 8.4375 -3.71875 C 8.328125 -3.8125 8.234375 -3.9375 8.25 -3.953125 C 8.28125 -4 8.390625 -3.90625 8.53125 -3.796875 C 8.828125 -3.5 8.78125 -3.453125 8.4375 -3.71875 Z M 8.75 -6.015625 C 8.890625 -5.734375 8.703125 -5.875 8.53125 -6.1875 C 8.484375 -6.265625 8.484375 -6.28125 8.5625 -6.234375 C 8.609375 -6.21875 8.703125 -6.109375 8.75 -6.015625 Z M 10.984375 -8.125 C 10.84375 -8.0625 10.71875 -7.96875 10.75 -7.890625 C 10.75 -7.84375 10.671875 -7.796875 10.546875 -7.796875 C 10.34375 -7.796875 10.171875 -7.625 10.359375 -7.625 C 10.40625 -7.625 10.359375 -7.5625 10.265625 -7.5 C 10.140625 -7.4375 10.03125 -7.40625 9.984375 -7.4375 C 9.921875 -7.453125 9.875 -7.4375 9.828125 -7.390625 C 9.765625 -7.265625 9.265625 -7.09375 9.265625 -7.203125 C 9.265625 -7.265625 9.515625 -7.390625 9.6875 -7.40625 C 9.734375 -7.40625 9.78125 -7.453125 9.8125 -7.5 C 9.875 -7.609375 10.75 -8.15625 11.03125 -8.28125 C 11.375 -8.421875 11.328125 -8.28125 10.984375 -8.125 Z M 12.421875 -8.890625 C 12.359375 -8.84375 12.234375 -8.796875 12.15625 -8.796875 C 12.109375 -8.796875 12.15625 -8.875 12.28125 -8.953125 C 12.40625 -9 12.421875 -9.046875 12.328125 -9.015625 C 12.25 -9 12.1875 -9.015625 12.1875 -9.0625 C 12.1875 -9.1875 12.359375 -9.234375 12.46875 -9.109375 C 12.5625 -9.015625 12.5625 -9 12.421875 -8.890625 Z M 19.09375 -15.65625 C 19.09375 -15.734375 19.625 -16.375 19.6875 -16.375 C 19.828125 -16.375 19.765625 -16.21875 19.46875 -15.921875 C 19.1875 -15.640625 19.09375 -15.5625 19.09375 -15.65625 Z M 14.21875 -10.078125 C 14.171875 -10.078125 14.125 -10.09375 14.125 -10.140625 C 14.125 -10.1875 14.15625 -10.234375 14.171875 -10.234375 C 14.171875 -10.234375 14.21875 -10.1875 14.25 -10.140625 C 14.265625 -10.09375 14.265625 -10.078125 14.21875 -10.078125 Z M 20.078125 -15.8125 C 19.515625 -15.203125 19.21875 -14.828125 19.21875 -14.671875 C 19.21875 -14.578125 18.796875 -14.21875 18.734375 -14.25 C 18.703125 -14.25 18.5625 -14.109375 18.421875 -13.9375 C 18.28125 -13.75 18.1875 -13.59375 18.203125 -13.59375 C 18.234375 -13.59375 18.15625 -13.5 18.03125 -13.390625 C 17.9375 -13.265625 17.796875 -13.171875 17.75 -13.171875 C 17.703125 -13.171875 17.65625 -13.125 17.65625 -13.046875 C 17.65625 -12.96875 17.578125 -12.90625 17.515625 -12.859375 C 17.4375 -12.828125 17.265625 -12.71875 17.171875 -12.609375 C 17.046875 -12.5 16.9375 -12.421875 16.890625 -12.46875 C 16.8125 -12.5 16.8125 -12.5 16.84375 -12.453125 C 16.90625 -12.375 16.40625 -11.828125 16.265625 -11.828125 C 16.1875 -11.828125 16.125 -11.78125 16.046875 -11.734375 C 16 -11.65625 15.640625 -11.421875 15.296875 -11.15625 C 14.96875 -10.90625 14.65625 -10.671875 14.625 -10.65625 C 14.609375 -10.625 14.4375 -10.5 14.25 -10.359375 C 14.0625 -10.21875 13.8125 -10 13.6875 -9.875 C 13.546875 -9.734375 13.40625 -9.640625 13.359375 -9.640625 C 13.3125 -9.640625 13.171875 -9.5625 13.078125 -9.5 C 12.859375 -9.359375 12.859375 -9.359375 12.953125 -9.515625 C 13 -9.625 13.28125 -9.859375 13.59375 -10.046875 C 13.90625 -10.265625 14.296875 -10.578125 14.46875 -10.75 C 14.65625 -10.9375 14.796875 -11.078125 14.84375 -11.078125 C 14.9375 -11.078125 15.703125 -11.6875 15.703125 -11.75 C 15.703125 -11.796875 15.78125 -11.828125 15.828125 -11.828125 C 15.90625 -11.828125 16.6875 -12.5 17.203125 -13 C 17.25 -13.078125 17.453125 -13.234375 17.65625 -13.453125 C 18.375 -14.125 18.546875 -14.3125 19.046875 -14.921875 C 19.8125 -15.78125 20.703125 -16.671875 20.703125 -16.578125 C 20.703125 -16.5 20.40625 -16.171875 20.078125 -15.8125 Z M 20.921875 -18.203125 C 20.671875 -17.796875 20.625 -17.828125 20.796875 -18.34375 C 20.921875 -18.75 21.015625 -18.90625 21.0625 -18.703125 C 21.109375 -18.609375 21.03125 -18.421875 20.921875 -18.203125 Z M 13.953125 -23.765625 C 13.75 -23.65625 14.125 -23.671875 14.515625 -23.8125 L 14.84375 -23.9375 L 14.46875 -23.890625 C 14.25 -23.859375 14.03125 -23.8125 13.953125 -23.765625 Z M 14.53125 -12.765625 C 14.65625 -12.875 14.78125 -12.96875 14.796875 -12.96875 C 14.796875 -13 14.78125 -13 14.75 -13 C 14.625 -13 14.296875 -12.71875 14.296875 -12.609375 C 14.296875 -12.59375 14.390625 -12.640625 14.53125 -12.765625 Z M 3.578125 -19.265625 C 3.734375 -19.421875 3.9375 -19.578125 3.953125 -19.578125 C 4.046875 -19.578125 4.359375 -19.90625 4.359375 -20 C 4.359375 -20.046875 4.265625 -20.03125 4.15625 -19.984375 C 4.03125 -19.9375 3.953125 -19.828125 3.953125 -19.734375 C 3.953125 -19.6875 3.9375 -19.640625 3.90625 -19.671875 C 3.890625 -19.6875 3.765625 -19.640625 3.671875 -19.546875 C 3.578125 -19.453125 3.328125 -19.234375 3.140625 -19.0625 C 2.953125 -18.90625 2.765625 -18.6875 2.6875 -18.5625 C 2.5625 -18.328125 2.609375 -18.375 3.578125 -19.265625 Z M 3.578125 -19.265625 "/></g></g></g></svg>